<?xml version="1.0" encoding="UTF-8" standalone="no"?>
<svg
   xmlns:dc="http://purl.org/dc/elements/1.1/"
   xmlns:cc="http://creativecommons.org/ns#"
   xmlns:rdf="http://www.w3.org/1999/02/22-rdf-syntax-ns#"
   xmlns:svg="http://www.w3.org/2000/svg"
   xmlns="http://www.w3.org/2000/svg"
   xmlns:sodipodi="http://sodipodi.sourceforge.net/DTD/sodipodi-0.dtd"
   xmlns:inkscape="http://www.inkscape.org/namespaces/inkscape"
   sodipodi:docname="devTroop.svg"
   inkscape:version="1.0 (4035a4fb49, 2020-05-01)"
   id="svg999"
   version="1.1"
   viewBox="0 0 68.6316 21.204628"
   height="21.204628mm"
   width="68.631599mm">
  <defs
     id="defs993" />
  <sodipodi:namedview
     inkscape:window-maximized="1"
     inkscape:window-y="-8"
     inkscape:window-x="2552"
     inkscape:window-height="1377"
     inkscape:window-width="3440"
     fit-margin-bottom="0"
     fit-margin-right="0"
     fit-margin-left="0"
     fit-margin-top="0"
     showgrid="false"
     inkscape:document-rotation="0"
     inkscape:current-layer="g929"
     inkscape:document-units="mm"
     inkscape:cy="392.45277"
     inkscape:cx="-658.94331"
     inkscape:zoom="0.7"
     inkscape:pageshadow="2"
     inkscape:pageopacity="0.0"
     borderopacity="1.0"
     bordercolor="#666666"
     pagecolor="#ffffff"
     id="base" />
  <metadata
     id="metadata996">
    <rdf:RDF>
      <cc:Work
         rdf:about="">
        <dc:format>image/svg+xml</dc:format>
        <dc:type
           rdf:resource="http://purl.org/dc/dcmitype/StillImage" />
        <dc:title></dc:title>
      </cc:Work>
    </rdf:RDF>
  </metadata>
  <g
     transform="translate(-73.74086,-77.336461)"
     id="layer1"
     inkscape:groupmode="layer"
     inkscape:label="Layer 1">
    <g
       transform="matrix(0.74473931,0,0,0.74473931,-7.9004246,72.071174)"
       style="font-style:normal;font-variant:normal;font-weight:normal;font-stretch:normal;font-size:23.1151px;line-height:1.25;font-family:'Bauhaus 93';-inkscape-font-specification:'Bauhaus 93, Normal';font-variant-ligatures:normal;font-variant-caps:normal;font-variant-numeric:normal;font-variant-east-asian:normal;opacity:0.998;fill:#1e79db;fill-opacity:1;stroke:none;stroke-width:0.577877"
       id="g915"
       aria-label="Tr">
      <path
         sodipodi:nodetypes="ccccccccc"
         id="path911"
         style="font-style:normal;font-variant:normal;font-weight:normal;font-stretch:normal;font-size:23.1151px;font-family:'Bauhaus 93';-inkscape-font-specification:'Bauhaus 93, Normal';font-variant-ligatures:normal;font-variant-caps:normal;font-variant-numeric:normal;font-variant-east-asian:normal;fill:#1e79db;fill-opacity:1;stroke-width:0.577877"
         d="m 148.55156,13.728143 v 10.452765 h -4.58239 V 13.728143 h -3.51016 V 9.3037706 h 11.59141 v 4.4243724 z" />
      <path
         id="path913"
         style="font-style:normal;font-variant:normal;font-weight:normal;font-stretch:normal;font-size:23.1151px;font-family:'Bauhaus 93';-inkscape-font-specification:'Bauhaus 93, Normal';font-variant-ligatures:normal;font-variant-caps:normal;font-variant-numeric:normal;font-variant-east-asian:normal;fill:#1e79db;fill-opacity:1;stroke-width:0.577877"
         d="m 158.56544,13.873566 v 4.514668 q -0.44018,-0.248307 -0.80135,-0.248307 -1.15124,0 -1.15124,1.76072 v 5.338596 h -4.22122 v -6.151236 q 0,-2.437921 1.33183,-3.882614 1.33183,-1.455981 3.5553,-1.455981 0.49661,0 1.28668,0.124154 z" />
    </g>
    <path
       d="m 116.31374,82.254813 c -0.65016,0.003 -1.02063,0.114116 -1.69798,0.428344 -4.75035,2.203647 -4.23098,8.734988 0.80588,10.13553 1.75854,0.488973 4.04801,-0.104056 5.40606,-1.686821 l 0.53725,-0.626152 -2.12708,-2.423047 -0.55381,0.660412 c -1.28096,1.311813 -2.44717,1.425774 -3.59455,0.350989 -1.00965,-0.94579 -0.66909,-2.770699 0.63232,-3.388267 1.50571,-0.714503 2.21619,-0.197341 6.27928,4.570152 1.03397,1.21321 1.66885,1.767422 2.48347,2.167506 2.43448,1.19561 5.45652,0.369979 6.91008,-1.888102 l 0.29287,-0.45528 0.99677,0.960979 c 1.39818,1.348606 2.61508,1.897604 4.21955,1.903489 3.70795,0.01357 6.2661,-3.335934 5.24095,-6.862342 -0.37893,-1.303487 -1.50827,-2.664915 -2.76364,-3.331687 -1.13249,-0.601497 -3.617,-0.601601 -4.73794,-3.88e-4 -0.92919,0.498372 -2.43985,1.609292 -2.2518,1.816516 l 2.05321,2.262175 c 0.0833,0.09175 0.18677,0.05779 0.24746,-0.100443 0.20152,-0.525175 1.65884,-1.353973 2.29604,-1.353154 2.1054,0.0022 3.00529,2.641745 1.34584,3.947071 -0.60462,0.4756 -1.84256,0.510155 -2.51425,0.07008 -0.26652,-0.174635 -1.60256,-1.594993 -2.96879,-3.156197 -3.11394,-3.558372 -3.66049,-3.915519 -5.99102,-3.915519 -1.47129,0 -1.78666,0.06554 -2.59431,0.540339 -0.50568,0.297269 -1.23554,0.909937 -1.62216,1.361614 l -0.70312,0.821283 -1.04912,-0.992156 c -1.41517,-1.338416 -2.14187,-1.679276 -3.81237,-1.78765 -0.30062,-0.01951 -0.54837,-0.03024 -0.76509,-0.02927 z m 10.56619,3.015718 a 2.3661731,2.3661731 0 0 1 2.36607,2.366089 2.3661731,2.3661731 0 0 1 -2.36607,2.366088 2.3661731,2.3661731 0 0 1 -2.3661,-2.366088 2.3661731,2.3661731 0 0 1 2.3661,-2.366089 z"
       style="opacity:0.998;fill:#1e79db;fill-opacity:1;stroke-width:0.197045"
       id="path917" />
    <path
       sodipodi:nodetypes="ccccc"
       d="m 131.38287,89.618431 h 3.13499 v 6.02602 h -3.13499 z"
       style="opacity:0.998;fill:#1e79db;fill-opacity:1;stroke:none;stroke-width:0.5179;stroke-linecap:round;paint-order:fill markers stroke"
       id="path919" />
    <circle
       r="2.301692"
       cy="79.638153"
       cx="116.77884"
       id="circle921"
       style="opacity:0.998;fill:#1e79db;fill-opacity:1;stroke:none;stroke-width:0.259832;stroke-linecap:round;paint-order:fill markers stroke" />
    <circle
       style="opacity:0.998;fill:#1e79db;fill-opacity:1;stroke:none;stroke-width:0.259832;stroke-linecap:round;paint-order:fill markers stroke"
       id="circle923"
       cx="126.90878"
       cy="79.638153"
       r="2.301692" />
    <circle
       r="2.301692"
       cy="79.638153"
       cx="136.94955"
       id="circle925"
       style="opacity:0.998;fill:#1e79db;fill-opacity:1;stroke:none;stroke-width:0.259832;stroke-linecap:round;paint-order:fill markers stroke" />
    <g
       transform="matrix(2.4970536,0,0,2.4970536,-472.58489,47.168162)"
       aria-label="Tr "
       id="g929"
       style="font-style:normal;font-variant:normal;font-weight:normal;font-stretch:normal;font-size:32.2379px;line-height:1.25;font-family:'Arial Rounded MT Bold';-inkscape-font-specification:'Arial Rounded MT Bold, Normal';font-variant-ligatures:normal;font-variant-caps:normal;font-variant-numeric:normal;font-variant-east-asian:normal;opacity:0.998;fill:#1e79db;fill-opacity:1;stroke:none;stroke-width:0.805947">
      <path
         sodipodi:nodetypes="cscscscc"
         d="m 241.87226,18.185746 0.007,1.624004 c 0.001,0.255934 0.0577,0.447228 0.17298,0.573789 0.11813,0.126562 0.27003,0.189879 0.45566,0.189879 0.1828,0 0.33189,-0.06197 0.4472,-0.185723 0.11531,-0.126563 0.17298,-0.319196 0.17298,-0.577945 v -1.624004 z"
         style="font-style:normal;font-variant:normal;font-weight:normal;font-stretch:normal;font-size:32.2379px;font-family:'Arial Rounded MT Bold';-inkscape-font-specification:'Arial Rounded MT Bold, Normal';font-variant-ligatures:normal;font-variant-caps:normal;font-variant-numeric:normal;font-variant-east-asian:normal;fill:#1e79db;fill-opacity:1;stroke-width:0.215999"
         id="path927" />
    </g>
    <text
       transform="scale(0.96569261,1.0355262)"
       id="text933"
       y="89.515846"
       x="75.428856"
       style="font-style:normal;font-variant:normal;font-weight:normal;font-stretch:normal;font-size:15.5138px;line-height:0;font-family:'MesloLGS NF';-inkscape-font-specification:'MesloLGS NF, Normal';font-variant-ligatures:normal;font-variant-caps:normal;font-variant-numeric:normal;font-variant-east-asian:normal;letter-spacing:-1.3675px;opacity:0.998;fill:#4d4d4d;fill-opacity:1;stroke:none;stroke-width:0.387847"
       xml:space="preserve"><tspan
         style="font-style:normal;font-variant:normal;font-weight:normal;font-stretch:normal;font-size:15.5138px;line-height:0.85;font-family:'MesloLGS NF';-inkscape-font-specification:'MesloLGS NF, Normal';font-variant-ligatures:normal;font-variant-caps:normal;font-variant-numeric:normal;font-variant-east-asian:normal;letter-spacing:-1.3675px;fill:#4d4d4d;stroke-width:0.387847"
         y="89.515846"
         x="75.428856"
         id="tspan931"
         sodipodi:role="line"
         dx="0">dev</tspan></text>
    <g
       style="font-style:normal;font-variant:normal;font-weight:normal;font-stretch:normal;font-size:32.2379px;line-height:1.25;font-family:'Arial Rounded MT Bold';-inkscape-font-specification:'Arial Rounded MT Bold, Normal';font-variant-ligatures:normal;font-variant-caps:normal;font-variant-numeric:normal;font-variant-east-asian:normal;opacity:0.998;fill:#1e79db;fill-opacity:1;stroke:none;stroke-width:0.805947"
       id="g937"
       aria-label="Tr "
       transform="matrix(0.74473931,0,0,0.74473931,-13.249015,66.454437)">
      <path
         id="path935"
         style="font-style:normal;font-variant:normal;font-weight:normal;font-stretch:normal;font-size:32.2379px;font-family:'Arial Rounded MT Bold';-inkscape-font-specification:'Arial Rounded MT Bold, Normal';font-variant-ligatures:normal;font-variant-caps:normal;font-variant-numeric:normal;font-variant-east-asian:normal;fill:#1e79db;fill-opacity:1;stroke-width:0.724227"
         d="m 159.59756,27.553255 v 5.445163 c 0,0.858135 0.19336,1.499519 0.57999,1.92387 0.39607,0.424353 0.90539,0.636648 1.52777,0.636648 0.61294,0 1.1128,-0.207794 1.49944,-0.622715 0.38663,-0.424355 0.57999,-1.070239 0.57999,-1.937803 v -5.445163 z" />
    </g>
    <g
       transform="matrix(0.81945802,0,0,0.81945802,-29.311245,63.79752)"
       aria-label="Tr "
       id="g941"
       style="font-style:normal;font-variant:normal;font-weight:normal;font-stretch:normal;font-size:32.2379px;line-height:1.25;font-family:'Arial Rounded MT Bold';-inkscape-font-specification:'Arial Rounded MT Bold, Normal';font-variant-ligatures:normal;font-variant-caps:normal;font-variant-numeric:normal;font-variant-east-asian:normal;opacity:0.998;fill:#1e79db;fill-opacity:1;stroke:none;stroke-width:0.805947">
      <path
         d="m 156.95171,27.553255 v 5.445163 c 0,0.858135 0.19336,1.499519 0.57999,1.92387 0.39607,0.424353 0.90539,0.636648 1.52777,0.636648 0.61294,0 1.1128,-0.207794 1.49944,-0.622715 0.38663,-0.424355 0.57999,-1.070239 0.57999,-1.937803 v -5.445163 z"
         style="font-style:normal;font-variant:normal;font-weight:normal;font-stretch:normal;font-size:32.2379px;font-family:'Arial Rounded MT Bold';-inkscape-font-specification:'Arial Rounded MT Bold, Normal';font-variant-ligatures:normal;font-variant-caps:normal;font-variant-numeric:normal;font-variant-east-asian:normal;fill:#1e79db;fill-opacity:1;stroke-width:0.724227"
         id="path939" />
    </g>
  </g>
</svg>
